<svg xmlns="http://www.w3.org/2000/svg" viewBox="0 0 512 512">
  <defs>
    <linearGradient id="bg" x1="0%" y1="0%" x2="100%" y2="100%">
      <stop offset="0%" style="stop-color:#6366f1"/>
      <stop offset="100%" style="stop-color:#8b5cf6"/>
    </linearGradient>
  </defs>
  <rect width="512" height="512" rx="108" fill="url(#bg)"/>
  <g fill="white">
    <!-- Headphones icon -->
    <path d="M256 120c-74.4 0-135 60.6-135 135v15c0 8.3 6.7 15 15 15h30c8.3 0 15-6.7 15-15v-60c0-8.3-6.7-15-15-15h-15c0-57.9 47.1-105 105-105s105 47.1 105 105h-15c-8.3 0-15 6.7-15 15v60c0 8.3 6.7 15 15 15h30c8.3 0 15-6.7 15-15v-15c0-74.4-60.6-135-135-135z"/>
    <rect x="136" y="285" width="60" height="107" rx="15"/>
    <rect x="316" y="285" width="60" height="107" rx="15"/>
    <!-- Sound waves -->
    <ellipse cx="256" cy="340" rx="40" ry="50" fill="none" stroke="white" stroke-width="8" opacity="0.6"/>
    <ellipse cx="256" cy="340" rx="65" ry="80" fill="none" stroke="white" stroke-width="6" opacity="0.4"/>
  </g>
</svg>
